# xmcd CD database file
#
# Track frame offsets:
#	150
#	17831
#	39279
#	74386
#	96196
#	113824
#
# Disc length: 1801 seconds
#
# Revision: 0
# Processed by: cddbd v1.5PL3 Copyright (c) Steve Scherf et al.
# Submitted via: CDex 1.51
#
DISCID=46070706
DTITLE=move - iWAKE YOUR LOVE
DYEAR=2002
DGENRE=Dance
TTITLE0=iWAKE YOUR LOVE
TTITLE1=T.R.A.P
TTITLE2=stay with me..(Groove That Soul
TTITLE3=iWAKE YOUR LOVE!(Puertronic Mix)
TTITLE4=iWAKE YOUR LOVE(Instrumental)
TTITLE5=T.R.A.P(Instrumental)
EXTD=YEAR: 2002
EXTT0=
EXTT1=
EXTT2=
EXTT3=
EXTT4=
EXTT5=
PLAYORDER=
